# xmcd CD database file
#
# Track frame offsets:
#	183
#	57500
#	119473
#	169425
#	193513
#	241228
#	261708
#
# Disc length: 4145 seconds
#
# Revision: 0
# Processed by: cddbd v1.4PL0 Copyright (c) Steve Scherf et al.
# Submitted via: CDex 1.50Beta7
#
DISCID=6b102f07
DTITLE=Billy Harper - Destiny is Yours
DYEAR=1900
DGENRE=Jazz
TTITLE0=Destiny is Yours
TTITLE1=East-West Exodus
TTITLE2=Dance in the Question
TTITLE3=My Funny Valentine
TTITLE4=The One That Makes the Rain Stop
TTITLE5=If Only One Could See
TTITLE6=Groove from Heaven
EXTD=
EXTT0=
EXTT1=
EXTT2=
EXTT3=
EXTT4=
EXTT5=
EXTT6=
PLAYORDER=
